<svg width="13" height="13" viewBox="0 0 13 13" fill="none" xmlns="http://www.w3.org/2000/svg">
<path d="M6.5 3.375V0.875H0.25V12.125H12.75V3.375H6.5ZM2.75 10.875H1.5V9.625H2.75V10.875ZM2.75 8.375H1.5V7.125H2.75V8.375ZM2.75 5.875H1.5V4.625H2.75V5.875ZM2.75 3.375H1.5V2.125H2.75V3.375ZM5.25 10.875H4V9.625H5.25V10.875ZM5.25 8.375H4V7.125H5.25V8.375ZM5.25 5.875H4V4.625H5.25V5.875ZM5.25 3.375H4V2.125H5.25V3.375ZM11.5 10.875H6.5V9.625H7.75V8.375H6.5V7.125H7.75V5.875H6.5V4.625H11.5V10.875ZM10.25 5.875H9V7.125H10.25V5.875ZM10.25 8.375H9V9.625H10.25V8.375Z" fill="black"/>
</svg>
